
<svg version="1.1" xmlns="http://www.w3.org/2000/svg" width="32" height="32">
<path d="M0 0 C4.49113411 0 8.59538982 0.04765185 13 1 C13 2.65 13 4.3 13 6 C13.66 6 14.32 6 15 6 C15 4.35 15 2.7 15 1 C19.75 -0.125 19.75 -0.125 22 1 C24.00800456 0.71887936 26.01014051 0.38932033 28 0 C30.44034783 5.69092972 30.26330748 11.05242203 30.1875 17.125 C30.18685547 18.11371094 30.18621094 19.10242188 30.18554688 20.12109375 C30.15976747 24.35464534 30.03458443 27.86166229 29 32 C24.38 32 19.76 32 15 32 C15 30.68 15 29.36 15 28 C14.34 28 13.68 28 13 28 C13 29.32 13 30.64 13 32 C8.38 32 3.76 32 -1 32 C-1.76188101 25.90495191 -2.13088897 19.88663589 -2.1875 13.75 C-2.20039062 13.07710937 -2.21328125 12.40421875 -2.2265625 11.7109375 C-2.23502915 7.42681086 -1.56415876 3.98149501 0 0 Z M1 2 C1 3.32 1 4.64 1 6 C1.99 6 2.98 6 4 6 C4 4.68 4 3.36 4 2 C3.01 2 2.02 2 1 2 Z M9 2 C9 3.32 9 4.64 9 6 C9.99 6 10.98 6 12 6 C11.67 4.68 11.34 3.36 11 2 C10.34 2 9.68 2 9 2 Z M17 2 C16.67 3.32 16.34 4.64 16 6 C16.99 6 17.98 6 19 6 C19 4.68 19 3.36 19 2 C18.34 2 17.68 2 17 2 Z M24 2 C24 3.32 24 4.64 24 6 C24.99 6 25.98 6 27 6 C27 4.68 27 3.36 27 2 C26.01 2 25.02 2 24 2 Z M-1 8 C-1 8.99 -1 9.98 -1 11 C8.9 11 18.8 11 29 11 C29 10.01 29 9.02 29 8 C28.34 8 27.68 8 27 8 C27 8.66 27 9.32 27 10 C26.01 10 25.02 10 24 10 C24 9.34 24 8.68 24 8 C22.35 8 20.7 8 19 8 C19 8.66 19 9.32 19 10 C18.34 9.34 17.68 8.68 17 8 C14.41645782 7.83312552 14.41645782 7.83312552 12 8 C12 8.66 12 9.32 12 10 C11.01 10 10.02 10 9 10 C9 9.34 9 8.68 9 8 C7.35 8 5.7 8 4 8 C4 8.66 4 9.32 4 10 C3.01 10 2.02 10 1 10 C1 9.34 1 8.68 1 8 C0.34 8 -0.32 8 -1 8 Z M1 12 C1 15.3 1 18.6 1 22 C1.99 22 2.98 22 4 22 C4 18.7 4 15.4 4 12 C3.01 12 2.02 12 1 12 Z M6 12 C6 15.3 6 18.6 6 22 C6.33 22 6.66 22 7 22 C7 18.7 7 15.4 7 12 C6.67 12 6.34 12 6 12 Z M9 12 C9 15.3 9 18.6 9 22 C9.99 22 10.98 22 12 22 C12 18.7 12 15.4 12 12 C11.01 12 10.02 12 9 12 Z M13 12 C13 15.3 13 18.6 13 22 C13.66 22 14.32 22 15 22 C15 18.7 15 15.4 15 12 C14.34 12 13.68 12 13 12 Z M16 12 C16 15.3 16 18.6 16 22 C16.99 22 17.98 22 19 22 C19 18.7 19 15.4 19 12 C18.01 12 17.02 12 16 12 Z M21 12 C21 15.3 21 18.6 21 22 C21.33 22 21.66 22 22 22 C22 18.7 22 15.4 22 12 C21.67 12 21.34 12 21 12 Z M24 12 C24 15.3 24 18.6 24 22 C24.99 22 25.98 22 27 22 C27 18.7 27 15.4 27 12 C26.01 12 25.02 12 24 12 Z M-1 23 C-1 23.99 -1 24.98 -1 26 C-0.34 26 0.32 26 1 26 C1 25.34 1 24.68 1 24 C1.99 24 2.98 24 4 24 C4 24.66 4 25.32 4 26 C5.65 26 7.3 26 9 26 C9 25.34 9 24.68 9 24 C9.66 24.66 10.32 25.32 11 26 C14 26.33333333 14 26.33333333 17 26 C17.66 25.34 18.32 24.68 19 24 C19 24.66 19 25.32 19 26 C20.65 26 22.3 26 24 26 C24 25.34 24 24.68 24 24 C24.99 24 25.98 24 27 24 C27 24.66 27 25.32 27 26 C27.66 26 28.32 26 29 26 C29 25.01 29 24.02 29 23 C19.1 23 9.2 23 -1 23 Z M1 28 C1 28.99 1 29.98 1 31 C1.99 31 2.98 31 4 31 C4 30.01 4 29.02 4 28 C3.01 28 2.02 28 1 28 Z M9 28 C9 28.99 9 29.98 9 31 C9.99 31 10.98 31 12 31 C12 30.01 12 29.02 12 28 C11.01 28 10.02 28 9 28 Z M16 28 C16 28.99 16 29.98 16 31 C16.99 31 17.98 31 19 31 C19 30.01 19 29.02 19 28 C18.01 28 17.02 28 16 28 Z M24 28 C24 28.99 24 29.98 24 31 C24.99 31 25.98 31 27 31 C27 30.01 27 29.02 27 28 C26.01 28 25.02 28 24 28 Z " fill="#000000" transform="translate(2,0)"/>
</svg>
