
<svg version="1.1" xmlns="http://www.w3.org/2000/svg" width="40" height="40">
<path d="M0 0 C1.9375 0.3125 1.9375 0.3125 4 1 C4.33 1.99 4.66 2.98 5 4 C5.66 4 6.32 4 7 4 C7.433125 4.7425 7.86625 5.485 8.3125 6.25 C10.16677714 9.27178496 12.15621943 10.92480878 15 13 C15.68707555 10.50935112 16 8.62113708 16 6 C16.66 6 17.32 6 18 6 C18.33 6.66 18.66 7.32 19 8 C19 7.34 19 6.68 19 6 C19.66 6 20.32 6 21 6 C21.33 6.66 21.66 7.32 22 8 C21.5359375 6.8553125 21.5359375 6.8553125 21.0625 5.6875 C20.32106407 3.81210323 19.63771783 1.91315348 19 0 C20.875 0.5625 20.875 0.5625 23 2 C24.125 5.375 24.125 5.375 25 9 C25.350625 9.70125 25.70125 10.4025 26.0625 11.125 C27.18763238 13.37526477 27.58814416 15.52886494 28 18 C29.32 18.33 30.64 18.66 32 19 C32 20.98 32 22.96 32 25 C23.59522573 27.65755073 12.56748834 27.16111407 4.69921875 23.265625 C2.45446081 21.59366736 1.3220999 20.51521445 0 18 C-0.35899842 14.90697487 -0.28220492 11.85826393 -0.1875 8.75 C-0.17396484 7.90953125 -0.16042969 7.0690625 -0.14648438 6.203125 C-0.11123464 4.13514062 -0.0574302 2.06748729 0 0 Z M4 12 C4.33 13.98 4.66 15.96 5 18 C5.99 18.33 6.98 18.66 8 19 C7.67 19.99 7.34 20.98 7 22 C7.66 22 8.32 22 9 22 C9.33 20.02 9.66 18.04 10 16 C7.28996707 13.32668287 7.28996707 13.32668287 4 12 Z M18 15 C18 15.33 18 15.66 18 16 C20.64 16 23.28 16 26 16 C26 15.67 26 15.34 26 15 C23.36 15 20.72 15 18 15 Z M21 18 C25 19 25 19 25 19 Z M15 20 C16 22 16 22 16 22 Z M18 20 C18 20.99 18 21.98 18 23 C20.31 23 22.62 23 25 23 C24.67 22.34 24.34 21.68 24 21 C20.97065509 20.34227572 20.97065509 20.34227572 18 20 Z M27 21 C28 23 28 23 28 23 Z " fill="#fbd341" transform="translate(0,5)"/>
<path d="M0 0 C3.96 0.99 3.96 0.99 8 2 C7.67 3.65 7.34 5.3 7 7 C4 7 1 7 -2 7 C-1.34 4.69 -0.68 2.38 0 0 Z " fill="#fbd341" transform="translate(11,1)"/>
<path d="M0 0 C0.99 0.33 1.98 0.66 3 1 C2.34 1.66 1.68 2.32 1 3 C0.67 2.01 0.34 1.02 0 0 Z " fill="#fbd341" transform="translate(14,8)"/>
<path d="M0 0 C0.66 0 1.32 0 2 0 C2 0.66 2 1.32 2 2 C1.34 2 0.68 2 0 2 C0 1.34 0 0.68 0 0 Z " fill="#fbd341" transform="translate(18,8)"/>
</svg>
